<svg width="256" height="256" viewBox="0 0 256 256" xmlns="http://www.w3.org/2000/svg" xmlns:sketch="http://www.bohemiancoding.com/sketch/ns"><title>asteroid</title><desc>Created with Sketch.</desc><g sketch:type="MSArtboardGroup" fill="none"><path d="M203.428 23.455l-81.467-.082-95.863 93.109-10.279 50.064 38.68 50.055 35.773 14.305 115.332-54.346 36.865-73.105-39.041-80z" fill="#000" sketch:type="MSShapeGroup"/><path d="M90.159 237.243l118.726-56.561c1.019-.51 2.038-1.529 2.548-2.548l19.363-41.783c.51 0 1.019-1.019 1.019-2.038l13.248-27.516c.51-1.019.51-3.057 0-4.076l-37.197-80c-.51-1.529-2.548-3.057-4.586-3.057l-83.567-2.038c-1.019 0-2.548.51-3.567 1.529l-96.815 96.815c-.51.51-1.529 2.038-1.529 2.548l-8.153 51.465c0 1.529.51 3.567 1.019 4.076l38.726 45.86c.51.51 1.529 1.529 2.038 1.529l34.65 15.796c1.019.51 3.057.51 4.076 0zm23.949-170.701c-9.172 9.682-23.949 9.682-33.631 2.548l35.669-35.669c7.134 9.682 7.134 23.949-2.038 33.121zm54.522-2.038c-9.172 9.172-9.172 23.439-.51 32.102 9.682 9.172 23.439 9.682 33.121.51 8.662-9.172 8.662-23.439-.51-32.611-9.172-9.172-22.93-8.662-32.102 0zm6.624 24.968c-4.586-4.586-4.586-12.739.51-17.834 5.096-4.586 12.739-5.096 17.834 0 5.096 5.096 5.096 13.248.51 18.344-5.605 5.096-13.248 4.586-18.854-.51zm-54.013-15.796c12.229-12.739 13.248-32.102 3.567-45.86l74.904 2.038 35.159 74.904-9.682 20.382c-20.382-15.287-49.936-13.248-68.79 5.605-18.854 18.344-19.873 47.389-6.115 66.752l-62.166 29.554-31.592-14.268-36.688-43.312 7.643-47.898 45.35-45.35c14.268 11.21 35.159 11.21 48.408-2.548zm-76.943 71.847c2.038 2.038 5.096 2.038 7.134 0 16.815-16.306 32.102-31.083 61.146-22.42 2.548.51 5.605-1.019 6.624-3.567.51-2.548-1.019-5.605-3.567-6.624-33.121-9.682-51.465 6.115-71.338 25.478-2.038 2.038-2.038 5.096 0 7.134zm119.236-7.643c15.796-15.287 40.764-17.325 57.07-3.567l-17.834 38.217-43.312 20.382c-11.72-14.777-11.21-39.745 4.076-55.032zm-85.096 13.758c-11.21 10.191-11.21 30.064 0 41.274 11.72 11.21 30.573 11.21 41.783.51 11.72-11.72 11.72-31.592 0-42.293-11.21-11.21-30.064-11.21-41.783.51zm7.134 34.14c-7.134-7.134-7.134-19.873 0-27.006 7.643-7.643 20.382-7.643 27.516-.51 7.643 7.643 7.643 20.382 0 28.025-7.134 6.624-19.873 6.624-27.516-.51z" fill="#fff" sketch:type="MSShapeGroup"/></g></svg>