<svg width="256" height="256" viewBox="0 0 256 256" xmlns="http://www.w3.org/2000/svg" xmlns:sketch="http://www.bohemiancoding.com/sketch/ns"><title>ship</title><desc>Created with Sketch.</desc><g sketch:type="MSLayerGroup" fill="none"><path d="M44.515 127.582l45.36 26.48 77.659 86.252 15.008-9.743-5.286-14.676-6.331-20.643 1.273-13.451 5.53-7.343 11.092-2.873h5.47l.8-88.74h-11.766l-7.47-3.235-5.406-8.753.652-11.167 4.938-16.258 9.87-18.074-16.92-10.503-81.368 88.549-43.106 24.179z" fill="#000" sketch:type="MSShapeGroup"/><path d="M156.949 45.185l-64.895 80.921c-.954.952-.954 2.856 0 3.808l64.895 80.921c2.227 2.856 6.362.952 5.726-2.539l-20.041-80.286 20.041-80.286c.636-3.491-3.499-5.395-5.726-2.539zm-20.996 82.19v1.587l16.86 66.323-54.079-67.275 54.079-67.593-16.86 66.958zm51.216-40.619h4.454v82.508h-4.454c-14.315 0-19.405 10.155-19.405 18.088 0 16.502 9.543 35.224 13.361 41.888l-12.088 8.251-76.984-86.316-41.991-23.166 41.991-23.166 76.984-86.316 12.088 8.251c-3.817 6.664-13.361 25.387-13.361 41.888 0 7.933 5.09 18.088 19.405 18.088zm26.403-6.347h-26.403c-9.225 0-13.043-6.347-13.043-11.741 0-19.04 10.498-35.224 13.997-41.254.636-1.269.318-3.173-.954-4.125l-16.542-11.424c-1.272-.952-3.181-.635-4.135.635l-61.078 68.227h-47.717c-1.591 0-3.181 1.587-3.181 3.173 0 1.904 1.591 3.173 3.181 3.173h41.991l-11.134 12.376-46.763 25.704c-2.545 1.269-2.227 4.443 0 5.712l46.763 25.704 11.134 12.376h-41.991c-1.591 0-3.181 1.587-3.181 3.173 0 1.904 1.591 3.173 3.181 3.173h47.717l61.078 68.545c.954.952 2.863 1.269 4.135.317l16.542-11.424c1.272-.952 1.591-2.856.954-4.125-2.545-4.443-13.997-22.848-13.997-41.254 0-5.395 3.817-11.741 13.043-11.741h26.403c1.591 0 3.181-1.269 3.181-3.173 0-1.587-1.591-3.173-3.181-3.173h-15.588v-82.508h15.588c1.591 0 3.181-1.269 3.181-3.173 0-1.587-1.591-3.173-3.181-3.173z" fill="#fff" sketch:type="MSShapeGroup"/></g></svg>