<svg width="400" height="400" viewBox="0 0 400 400" xmlns="http://www.w3.org/2000/svg" xmlns:sketch="http://www.bohemiancoding.com/sketch/ns"><title>stars</title><desc>Created with Sketch.</desc><g sketch:type="MSArtboardGroup" fill="#666"><ellipse id="Oval-1" sketch:type="MSShapeGroup" cx="34.092" cy="23.64" rx="2.809" ry="2.806"/><ellipse id="Oval-1" sketch:type="MSShapeGroup" cx="73.813" cy="35.263" rx="2.407" ry="2.405"/><ellipse id="Oval-1" sketch:type="MSShapeGroup" cx="68.196" cy="100.194" rx="2.407" ry="2.405"/><ellipse id="Oval-1" sketch:type="MSShapeGroup" cx="39.709" cy="106.206" rx="2.809" ry="2.806"/><ellipse id="Oval-1" sketch:type="MSShapeGroup" cx="66.189" cy="116.628" rx="2.809" ry="2.806"/><ellipse id="Oval-1" sketch:type="MSShapeGroup" cx="59.77" cy="164.725" rx="2.006" ry="2.004"/><ellipse id="Oval-1" sketch:type="MSShapeGroup" cx="95.077" cy="147.891" rx="1.204" ry="1.202"/><ellipse id="Oval-1" sketch:type="MSShapeGroup" cx="106.312" cy="100.595" rx="2.809" ry="2.806"/><ellipse id="Oval-1" sketch:type="MSShapeGroup" cx="131.187" cy="44.482" rx="2.809" ry="2.806"/><ellipse id="Oval-1" sketch:type="MSShapeGroup" cx="105.509" cy="56.506" rx="2.006" ry="2.004"/><ellipse id="Oval-1" sketch:type="MSShapeGroup" cx="106.312" cy="14.02" rx="2.809" ry="2.806"/><ellipse id="Oval-1" sketch:type="MSShapeGroup" cx="136.804" cy="17.227" rx="2.809" ry="2.806"/><ellipse id="Oval-1" sketch:type="MSShapeGroup" cx="168.1" cy="52.498" rx="3.611" ry="3.607"/><ellipse id="Oval-1" sketch:type="MSShapeGroup" cx="167.297" cy="100.595" rx="2.809" ry="2.806"/><ellipse id="Oval-1" sketch:type="MSShapeGroup" cx="161.279" cy="104.202" rx="3.21" ry="3.206"/><ellipse id="Oval-1" sketch:type="MSShapeGroup" cx="151.248" cy="129.453" rx="2.809" ry="2.806"/><ellipse id="Oval-1" sketch:type="MSShapeGroup" cx="172.914" cy="135.065" rx="2.809" ry="2.806"/><ellipse id="Oval-1" sketch:type="MSShapeGroup" cx="154.458" cy="159.915" rx="2.809" ry="2.806"/><ellipse id="Oval-1" sketch:type="MSShapeGroup" cx="178.532" cy="171.138" rx="2.809" ry="2.806"/><ellipse id="Oval-1" sketch:type="MSShapeGroup" cx="193.778" cy="192.781" rx="2.809" ry="2.806"/><ellipse id="Oval-1" sketch:type="MSShapeGroup" cx="203.407" cy="146.287" rx="2.809" ry="2.806"/><ellipse id="Oval-1" sketch:type="MSShapeGroup" cx="131.187" cy="187.17" rx="2.809" ry="2.806"/><ellipse id="Oval-1" sketch:type="MSShapeGroup" cx="100.695" cy="157.51" rx="2.809" ry="2.806"/><ellipse id="Oval-1" sketch:type="MSShapeGroup" cx="68.597" cy="189.575" rx="2.809" ry="2.806"/><ellipse id="Oval-1" sketch:type="MSShapeGroup" cx="28.475" cy="189.575" rx="2.809" ry="2.806"/><ellipse id="Oval-1" sketch:type="MSShapeGroup" cx="12.426" cy="198.393" rx="2.809" ry="2.806"/><ellipse id="Oval-1" sketch:type="MSShapeGroup" cx="6.809" cy="171.138" rx="2.809" ry="2.806"/><ellipse id="Oval-1" sketch:type="MSShapeGroup" cx="24.061" cy="136.267" rx="4.012" ry="4.008"/><ellipse id="Oval-1" sketch:type="MSShapeGroup" cx="17.24" cy="122.239" rx="2.809" ry="2.806"/><ellipse id="Oval-1" sketch:type="MSShapeGroup" cx="26.067" cy="122.239" rx="2.809" ry="2.806"/><ellipse id="Oval-1" sketch:type="MSShapeGroup" cx="15.635" cy="87.769" rx="2.809" ry="2.806"/><ellipse id="Oval-1" sketch:type="MSShapeGroup" cx="32.487" cy="70.935" rx="3.611" ry="3.607"/><ellipse id="Oval-1" sketch:type="MSShapeGroup" cx="6.809" cy="20.433" rx="2.809" ry="2.806"/><ellipse id="Oval-1" sketch:type="MSShapeGroup" cx="20.45" cy="12.417" rx="2.006" ry="2.004"/><ellipse id="Oval-1" sketch:type="MSShapeGroup" cx="145.631" cy="71.737" rx="2.809" ry="2.806"/><ellipse id="Oval-1" sketch:type="MSShapeGroup" cx="181.741" cy="14.822" rx="2.809" ry="2.806"/><ellipse id="Oval-1" sketch:type="MSShapeGroup" cx="191.371" cy="42.077" rx="2.809" ry="2.806"/><path d="M377.649 231.293c0 1.572 1.276 2.846 2.849 2.846 1.574 0 2.849-1.274 2.849-2.846s-1.276-2.846-2.849-2.846c-1.574 0-2.849 1.274-2.849 2.846zM366.252 271.547c0 1.347 1.093 2.44 2.442 2.44 1.349 0 2.442-1.092 2.442-2.44 0-1.347-1.093-2.44-2.442-2.44-1.349 0-2.442 1.092-2.442 2.44zM300.314 265.855c0 1.347 1.093 2.44 2.442 2.44 1.349 0 2.442-1.092 2.442-2.44 0-1.347-1.093-2.44-2.442-2.44-1.349 0-2.442 1.092-2.442 2.44zM293.802 236.986c0 1.572 1.276 2.846 2.849 2.846 1.574 0 2.849-1.274 2.849-2.846s-1.276-2.846-2.849-2.846c-1.574 0-2.849 1.274-2.849 2.846zM283.219 263.822c0 1.572 1.276 2.846 2.849 2.846 1.574 0 2.849-1.274 2.849-2.846s-1.276-2.846-2.849-2.846c-1.574 0-2.849 1.274-2.849 2.846zM235.19 257.316c0 1.123.911 2.033 2.035 2.033s2.035-.91 2.035-2.033c0-1.123-.911-2.033-2.035-2.033s-2.035.91-2.035 2.033zM253.099 293.097c0 .674.547 1.22 1.221 1.22s1.221-.546 1.221-1.22c0-.674-.547-1.22-1.221-1.22s-1.221.546-1.221 1.22zM299.5 304.482c0 1.572 1.276 2.846 2.849 2.846 1.574 0 2.849-1.274 2.849-2.846s-1.276-2.846-2.849-2.846c-1.574 0-2.849 1.274-2.849 2.846zM356.483 329.692c0 1.572 1.276 2.846 2.849 2.846 1.574 0 2.849-1.274 2.849-2.846s-1.276-2.846-2.849-2.846c-1.574 0-2.849 1.274-2.849 2.846zM345.087 303.669c0 1.123.911 2.033 2.035 2.033s2.035-.91 2.035-2.033c0-1.123-.911-2.033-2.035-2.033s-2.035.91-2.035 2.033zM387.417 304.482c0 1.572 1.276 2.846 2.849 2.846 1.574 0 2.849-1.274 2.849-2.846s-1.276-2.846-2.849-2.846c-1.574 0-2.849 1.274-2.849 2.846zM384.161 335.384c0 1.572 1.276 2.846 2.849 2.846 1.574 0 2.849-1.274 2.849-2.846s-1.276-2.846-2.849-2.846c-1.574 0-2.849 1.274-2.849 2.846zM347.529 367.1c0 2.021 1.64 3.659 3.663 3.659 2.023 0 3.663-1.638 3.663-3.659s-1.64-3.659-3.663-3.659c-2.023 0-3.663 1.638-3.663 3.659zM299.5 366.286c0 1.572 1.276 2.846 2.849 2.846 1.574 0 2.849-1.274 2.849-2.846s-1.276-2.846-2.849-2.846c-1.574 0-2.849 1.274-2.849 2.846zM295.43 360.187c0 1.797 1.458 3.253 3.256 3.253 1.798 0 3.256-1.456 3.256-3.253 0-1.797-1.458-3.253-3.256-3.253-1.798 0-3.256 1.456-3.256 3.253zM270.194 350.022c0 1.572 1.276 2.846 2.849 2.846 1.574 0 2.849-1.274 2.849-2.846s-1.276-2.846-2.849-2.846c-1.574 0-2.849 1.274-2.849 2.846zM264.496 371.979c0 1.572 1.276 2.846 2.849 2.846 1.574 0 2.849-1.274 2.849-2.846s-1.276-2.846-2.849-2.846c-1.574 0-2.849 1.274-2.849 2.846zM239.26 353.275c0 1.572 1.276 2.846 2.849 2.846 1.574 0 2.849-1.274 2.849-2.846s-1.276-2.846-2.849-2.846c-1.574 0-2.849 1.274-2.849 2.846zM227.864 377.671c0 1.572 1.276 2.846 2.849 2.846 1.574 0 2.849-1.274 2.849-2.846s-1.276-2.846-2.849-2.846c-1.574 0-2.849 1.274-2.849 2.846zM205.884 393.122c0 1.572 1.276 2.846 2.849 2.846 1.574 0 2.849-1.274 2.849-2.846s-1.276-2.846-2.849-2.846c-1.574 0-2.849 1.274-2.849 2.846zM211.583 329.692c0 1.572 1.276 2.846 2.849 2.846 1.574 0 2.849-1.274 2.849-2.846s-1.276-2.846-2.849-2.846c-1.574 0-2.849 1.274-2.849 2.846zM241.702 298.79c0 1.572 1.276 2.846 2.849 2.846 1.574 0 2.849-1.274 2.849-2.846s-1.276-2.846-2.849-2.846c-1.574 0-2.849 1.274-2.849 2.846zM209.14 266.261c0 1.572 1.276 2.846 2.849 2.846 1.574 0 2.849-1.274 2.849-2.846s-1.276-2.846-2.849-2.846c-1.574 0-2.849 1.274-2.849 2.846zM209.14 225.601c0 1.572 1.276 2.846 2.849 2.846 1.574 0 2.849-1.274 2.849-2.846s-1.276-2.846-2.849-2.846c-1.574 0-2.849 1.274-2.849 2.846zM200.186 209.336c0 1.572 1.276 2.846 2.849 2.846 1.574 0 2.849-1.274 2.849-2.846s-1.276-2.846-2.849-2.846c-1.574 0-2.849 1.274-2.849 2.846zM227.864 203.644c0 1.572 1.276 2.846 2.849 2.846 1.574 0 2.849-1.274 2.849-2.846s-1.276-2.846-2.849-2.846c-1.574 0-2.849 1.274-2.849 2.846zM262.054 221.128c0 2.246 1.822 4.066 4.07 4.066s4.07-1.82 4.07-4.066c0-2.246-1.822-4.066-4.07-4.066s-4.07 1.82-4.07 4.066zM284.847 201.204c0 1.572 1.276 2.846 2.849 2.846 1.574 0 2.849-1.274 2.849-2.846s-1.276-2.846-2.849-2.846c-1.574 0-2.849 1.274-2.849 2.846zM277.521 223.161c0 1.572 1.276 2.846 2.849 2.846 1.574 0 2.849-1.274 2.849-2.846s-1.276-2.846-2.849-2.846c-1.574 0-2.849 1.274-2.849 2.846zM312.525 212.589c0 1.572 1.276 2.846 2.849 2.846 1.574 0 2.849-1.274 2.849-2.846s-1.276-2.846-2.849-2.846c-1.574 0-2.849 1.274-2.849 2.846zM328.806 229.667c0 2.021 1.64 3.659 3.663 3.659 2.023 0 3.663-1.638 3.663-3.659s-1.64-3.659-3.663-3.659c-2.023 0-3.663 1.638-3.663 3.659zM380.905 203.644c0 1.572 1.276 2.846 2.849 2.846 1.574 0 2.849-1.274 2.849-2.846s-1.276-2.846-2.849-2.846c-1.574 0-2.849 1.274-2.849 2.846zM389.86 217.468c0 1.123.911 2.033 2.035 2.033s2.035-.91 2.035-2.033c0-1.123-.911-2.033-2.035-2.033s-2.035.91-2.035 2.033zM328.806 344.33c0 1.572 1.276 2.846 2.849 2.846 1.574 0 2.849-1.274 2.849-2.846s-1.276-2.846-2.849-2.846c-1.574 0-2.849 1.274-2.849 2.846zM386.603 380.924c0 1.572 1.276 2.846 2.849 2.846 1.574 0 2.849-1.274 2.849-2.846s-1.276-2.846-2.849-2.846c-1.574 0-2.849 1.274-2.849 2.846zM358.926 390.683c0 1.572 1.276 2.846 2.849 2.846 1.574 0 2.849-1.274 2.849-2.846s-1.276-2.846-2.849-2.846c-1.574 0-2.849 1.274-2.849 2.846zM344.326 28.63c.665 1.15 2.137 1.544 3.288.88 1.151-.664 1.546-2.135.881-3.285-.665-1.15-2.137-1.544-3.288-.88-1.151.664-1.546 2.135-.881 3.285zM285.228 56.236c.665 1.15 2.137 1.544 3.288.88 1.151-.664 1.546-2.135.881-3.285-.665-1.15-2.137-1.544-3.288-.88-1.151.664-1.546 2.135-.881 3.285zM265.425 34.797c.776 1.342 2.493 1.802 3.837 1.027 1.343-.775 1.804-2.491 1.028-3.833s-2.493-1.802-3.837-1.027c-1.343.775-1.804 2.491-1.028 3.833zM269.631 62.917c.776 1.342 2.493 1.802 3.837 1.027 1.343-.775 1.804-2.491 1.028-3.833s-2.493-1.802-3.837-1.027c-1.343.775-1.804 2.491-1.028 3.833zM225.42 81.011c.554.959 1.781 1.287 2.74.734.96-.553 1.288-1.779.734-2.738-.554-.959-1.781-1.287-2.74-.734-.96.553-1.288 1.779-.734 2.738zM258.362 102.739c.332.575 1.069.772 1.644.44.576-.332.773-1.067.441-1.643-.332-.575-1.069-.772-1.644-.44-.576.332-.773 1.067-.441 1.643zM303.591 89.612c.776 1.342 2.493 1.802 3.837 1.027 1.343-.775 1.804-2.491 1.028-3.833s-2.493-1.802-3.837-1.027c-1.343.775-1.804 2.491-1.028 3.833zM364.674 83.076c.776 1.342 2.493 1.802 3.837 1.027 1.343-.775 1.804-2.491 1.028-3.833s-2.493-1.802-3.837-1.027c-1.343.775-1.804 2.491-1.028 3.833zM342.106 66.473c.554.959 1.781 1.287 2.74.734.96-.553 1.288-1.779.734-2.738-.554-.959-1.781-1.287-2.74-.734-.96.553-1.288 1.779-.734 2.738zM378.644 46.325c.776 1.342 2.493 1.802 3.837 1.027 1.343-.775 1.804-2.491 1.028-3.833s-2.493-1.802-3.837-1.027c-1.343.775-1.804 2.491-1.028 3.833zM392.694 74.308c.779 1.342 2.503 1.802 3.852 1.027 1.349-.775 1.811-2.491 1.032-3.833-.779-1.342-2.503-1.802-3.852-1.027-1.349.775-1.811 2.491-1.032 3.833zM377.006 119.42c1.001 1.725 3.219 2.316 4.953 1.32 1.734-.996 2.328-3.202 1.327-4.928-1.001-1.725-3.219-2.316-4.953-1.32-1.734.996-2.328 3.202-1.327 4.928zM335.434 142.373c.779 1.342 2.503 1.802 3.852 1.027 1.349-.775 1.811-2.491 1.032-3.833-.779-1.342-2.503-1.802-3.852-1.027-1.349.775-1.811 2.491-1.032 3.833zM328.923 139.17c.89 1.534 2.861 2.059 4.403 1.174 1.541-.885 2.07-2.846 1.18-4.38-.89-1.534-2.861-2.059-4.403-1.174-1.541.885-2.07 2.846-1.18 4.38zM302.257 142.918c.779 1.342 2.503 1.802 3.852 1.027 1.349-.775 1.811-2.491 1.032-3.833-.779-1.342-2.503-1.802-3.852-1.027-1.349.775-1.811 2.491-1.032 3.833zM308.249 164.467c.779 1.342 2.503 1.802 3.852 1.027 1.349-.775 1.811-2.491 1.032-3.833-.779-1.342-2.503-1.802-3.852-1.027-1.349.775-1.811 2.491-1.032 3.833zM277.352 160.925c.779 1.342 2.503 1.802 3.852 1.027 1.349-.775 1.811-2.491 1.032-3.833-.779-1.342-2.503-1.802-3.852-1.027-1.349.775-1.811 2.491-1.032 3.833zM279.669 187.363c.779 1.342 2.503 1.802 3.852 1.027 1.349-.775 1.811-2.491 1.032-3.833-.779-1.342-2.503-1.802-3.852-1.027-1.349.775-1.811 2.491-1.032 3.833zM253.175 181.133c.779 1.342 2.503 1.802 3.852 1.027 1.349-.775 1.811-2.491 1.032-3.833-.779-1.342-2.503-1.802-3.852-1.027-1.349.775-1.811 2.491-1.032 3.833zM313.789 196.459c.779 1.342 2.503 1.802 3.852 1.027 1.349-.775 1.811-2.491 1.032-3.833-.779-1.342-2.503-1.802-3.852-1.027-1.349.775-1.811 2.491-1.032 3.833zM241.945 154.421c.779 1.342 2.503 1.802 3.852 1.027 1.349-.775 1.811-2.491 1.032-3.833-.779-1.342-2.503-1.802-3.852-1.027-1.349.775-1.811 2.491-1.032 3.833zM252.454 113.21c.779 1.342 2.503 1.802 3.852 1.027 1.349-.775 1.811-2.491 1.032-3.833-.779-1.342-2.503-1.802-3.852-1.027-1.349.775-1.811 2.491-1.032 3.833zM208.428 101.474c.779 1.342 2.503 1.802 3.852 1.027 1.349-.775 1.811-2.491 1.032-3.833-.779-1.342-2.503-1.802-3.852-1.027-1.349.775-1.811 2.491-1.032 3.833zM188.285 66.762c.779 1.342 2.503 1.802 3.852 1.027 1.349-.775 1.811-2.491 1.032-3.833-.779-1.342-2.503-1.802-3.852-1.027-1.349.775-1.811 2.491-1.032 3.833zM172.552 57.287c.779 1.342 2.503 1.802 3.852 1.027 1.349-.775 1.811-2.491 1.032-3.833-.779-1.342-2.503-1.802-3.852-1.027-1.349.775-1.811 2.491-1.032 3.833zM193.457 38.8c.779 1.342 2.503 1.802 3.852 1.027 1.349-.775 1.811-2.491 1.032-3.833-.779-1.342-2.503-1.802-3.852-1.027-1.349.775-1.811 2.491-1.032 3.833zM231.425 36.892c1.112 1.917 3.576 2.574 5.503 1.467 1.927-1.107 2.587-3.558 1.475-5.475-1.112-1.917-3.576-2.574-5.503-1.467-1.927 1.107-2.587 3.558-1.475 5.475zM241.258 23.375c.779 1.342 2.503 1.802 3.852 1.027 1.349-.775 1.811-2.491 1.032-3.833-.779-1.342-2.503-1.802-3.852-1.027-1.349.775-1.811 2.491-1.032 3.833zM245.69 31.012c.779 1.342 2.503 1.802 3.852 1.027 1.349-.775 1.811-2.491 1.032-3.833-.779-1.342-2.503-1.802-3.852-1.027-1.349.775-1.811 2.491-1.032 3.833zM292.873 11.315c1.001 1.725 3.219 2.316 4.953 1.32 1.734-.996 2.328-3.202 1.327-4.928-1.001-1.725-3.219-2.316-4.953-1.32-1.734.996-2.328 3.202-1.327 4.928zM349.677 108.018c.779 1.347 2.503 1.809 3.852 1.031 1.349-.778 1.811-2.501 1.032-3.848-.779-1.347-2.503-1.809-3.852-1.031-1.349.778-1.811 2.501-1.032 3.848zM138.948 205.104c.779 1.347 2.503 1.809 3.852 1.031 1.349-.778 1.811-2.501 1.032-3.848-.779-1.347-2.503-1.809-3.852-1.031-1.349.778-1.811 2.501-1.032 3.848zM149.121 245.242c.667 1.155 2.146 1.551 3.302.884 1.156-.667 1.552-2.144.885-3.298-.667-1.155-2.146-1.551-3.302-.884-1.156.667-1.552 2.144-.885 3.298zM89.781 272.96c.667 1.155 2.146 1.551 3.302.884 1.156-.667 1.552-2.144.885-3.298-.667-1.155-2.146-1.551-3.302-.884-1.156.667-1.552 2.144-.885 3.298zM69.897 251.435c.779 1.347 2.503 1.809 3.852 1.031 1.349-.778 1.811-2.501 1.032-3.848-.779-1.347-2.503-1.809-3.852-1.031-1.349.778-1.811 2.501-1.032 3.848zM74.12 279.669c.779 1.347 2.503 1.809 3.852 1.031 1.349-.778 1.811-2.501 1.032-3.848-.779-1.347-2.503-1.809-3.852-1.031-1.349.778-1.811 2.501-1.032 3.848zM29.728 297.836c.556.962 1.788 1.292 2.752.737.963-.556 1.294-1.786.737-2.749-.556-.962-1.788-1.292-2.752-.737-.963.556-1.294 1.786-.737 2.749zM62.806 319.653c.334.577 1.073.775 1.651.442.578-.333.776-1.072.442-1.649s-1.073-.775-1.651-.442c-.578.333-.776 1.072-.442 1.649zM108.219 306.472c.779 1.347 2.503 1.809 3.852 1.031 1.349-.778 1.811-2.501 1.032-3.848-.779-1.347-2.503-1.809-3.852-1.031-1.349.778-1.811 2.501-1.032 3.848zM169.552 299.91c.779 1.347 2.503 1.809 3.852 1.031 1.349-.778 1.811-2.501 1.032-3.848-.779-1.347-2.503-1.809-3.852-1.031-1.349.778-1.811 2.501-1.032 3.848zM146.892 283.239c.556.962 1.788 1.292 2.752.737.963-.556 1.294-1.786.737-2.749-.556-.962-1.788-1.292-2.752-.737-.963.556-1.294 1.786-.737 2.749zM183.579 263.009c.779 1.347 2.503 1.809 3.852 1.031 1.349-.778 1.811-2.501 1.032-3.848-.779-1.347-2.503-1.809-3.852-1.031-1.349.778-1.811 2.501-1.032 3.848zM196.097 291.106c.779 1.347 2.503 1.809 3.852 1.031 1.349-.778 1.811-2.501 1.032-3.848-.779-1.347-2.503-1.809-3.852-1.031-1.349.778-1.811 2.501-1.032 3.848zM180.409 336.401c1.001 1.732 3.219 2.326 4.953 1.326 1.734-1 2.328-3.215 1.327-4.948-1.001-1.732-3.219-2.326-4.953-1.326-1.734 1-2.328 3.215-1.327 4.948zM150.117 365.987c.779 1.347 2.503 1.809 3.852 1.031 1.349-.778 1.811-2.501 1.032-3.848-.779-1.347-2.503-1.809-3.852-1.031-1.349.778-1.811 2.501-1.032 3.848zM132.326 356.232c.89 1.54 2.861 2.067 4.403 1.178 1.541-.889 2.07-2.858 1.18-4.398-.89-1.54-2.861-2.067-4.403-1.178-1.541.889-2.07 2.858-1.18 4.398zM105.659 359.995c.779 1.347 2.503 1.809 3.852 1.031 1.349-.778 1.811-2.501 1.032-3.848-.779-1.347-2.503-1.809-3.852-1.031-1.349.778-1.811 2.501-1.032 3.848zM111.652 381.632c.779 1.347 2.503 1.809 3.852 1.031 1.349-.778 1.811-2.501 1.032-3.848-.779-1.347-2.503-1.809-3.852-1.031-1.349.778-1.811 2.501-1.032 3.848zM80.755 378.076c.779 1.347 2.503 1.809 3.852 1.031 1.349-.778 1.811-2.501 1.032-3.848-.779-1.347-2.503-1.809-3.852-1.031-1.349.778-1.811 2.501-1.032 3.848zM45.348 371.544c.779 1.347 2.503 1.809 3.852 1.031 1.349-.778 1.811-2.501 1.032-3.848-.779-1.347-2.503-1.809-3.852-1.031-1.349.778-1.811 2.501-1.032 3.848zM55.857 330.166c.779 1.347 2.503 1.809 3.852 1.031 1.349-.778 1.811-2.501 1.032-3.848-.779-1.347-2.503-1.809-3.852-1.031-1.349.778-1.811 2.501-1.032 3.848zM11.831 318.382c.779 1.347 2.503 1.809 3.852 1.031 1.349-.778 1.811-2.501 1.032-3.848-.779-1.347-2.503-1.809-3.852-1.031-1.349.778-1.811 2.501-1.032 3.848zM25.232 253.688c1.112 1.925 3.576 2.584 5.503 1.473s2.587-3.573 1.475-5.497c-1.112-1.925-3.576-2.584-5.503-1.473s-2.587 3.573-1.475 5.497zM44.661 239.966c.779 1.347 2.503 1.809 3.852 1.031 1.349-.778 1.811-2.501 1.032-3.848-.779-1.347-2.503-1.809-3.852-1.031-1.349.778-1.811 2.501-1.032 3.848zM55.857 259.524c.779 1.347 2.503 1.809 3.852 1.031 1.349-.778 1.811-2.501 1.032-3.848-.779-1.347-2.503-1.809-3.852-1.031-1.349.778-1.811 2.501-1.032 3.848zM73.86 221.267c.779 1.347 2.503 1.809 3.852 1.031 1.349-.778 1.811-2.501 1.032-3.848-.779-1.347-2.503-1.809-3.852-1.031-1.349.778-1.811 2.501-1.032 3.848zM96.276 227.856c1.001 1.732 3.219 2.326 4.953 1.326 1.734-1 2.328-3.215 1.327-4.948-1.001-1.732-3.219-2.326-4.953-1.326-1.734 1-2.328 3.215-1.327 4.948zM128.042 179.795c.779 1.347 2.503 1.809 3.852 1.031 1.349-.778 1.811-2.501 1.032-3.848-.779-1.347-2.503-1.809-3.852-1.031-1.349.778-1.811 2.501-1.032 3.848zM142.566 187.218c.556.962 1.788 1.292 2.752.737.963-.556 1.294-1.786.737-2.749-.556-.962-1.788-1.292-2.752-.737-.963.556-1.294 1.786-.737 2.749zM153.079 326.14c.779 1.347 2.503 1.809 3.852 1.031 1.349-.778 1.811-2.501 1.032-3.848-.779-1.347-2.503-1.809-3.852-1.031-1.349.778-1.811 2.501-1.032 3.848zM220.751 328.934c.779 1.347 2.503 1.809 3.852 1.031 1.349-.778 1.811-2.501 1.032-3.848-.779-1.347-2.503-1.809-3.852-1.031-1.349.778-1.811 2.501-1.032 3.848zM201.86 350.981c.779 1.347 2.503 1.809 3.852 1.031 1.349-.778 1.811-2.501 1.032-3.848-.779-1.347-2.503-1.809-3.852-1.031-1.349.778-1.811 2.501-1.032 3.848z" sketch:type="MSShapeGroup"/></g></svg>